<svg xmlns="http://www.w3.org/2000/svg" width="200" height="200" viewBox="0 0 200 200" fill="none">
<path d="M 179.01,48.43 L 178.44,42.96 L 173.34,40.5 C 163.01,35.72 153.11,32.31 145.38,30.7 C 145.53,28.26 145.44,26.11 145.24,23.49 L 144.69,23.38 C 132.22,21.41 117.66,22.37 106.27,30.88 C 108.19,25.79 110.31,22.23 113.12,19.29 C 116.62,15.63 115.62,9.77 110.06,6.81 C 105.44,3.79 101.41,4.79 99.16,8.11 C 94.17,14.86 92.73,22.64 92.62,29.88 C 83.18,23.08 72.59,22.07 60.65,22.72 L 54.41,23.26 L 54.49,26.61 C 54.53,27.81 54.58,28.98 54.69,30.12 C 46.18,32.27 35.61,36.02 25.07,40.96 L 20.95,42.96 L 19.82,51.39 C 14.18,91.84 24.41,127.28 50.96,157.05 C 63.14,170.84 79.17,185.78 99.45,194.43 C 119.72,187.08 136.66,172.18 149.92,155.73 C 172.36,129.01 183.82,93.01 179.01,48.43 Z" fill="url(#paint0_linear_132_1721)"/>
<path d="M 173.59,47.8 C 163.14,42.77 152.55,38.71 143.92,36.82 L 143.09,36.63 L 141.25,44.81 L 142.21,45.09 C 149.66,47.46 157.12,50.18 171.01,56.46 C 177.18,97.45 164.76,129.74 146.16,152.04 C 132.04,169.45 114.82,181.62 99.72,186.29 C 83.22,179.91 67.89,168.91 54.21,152.84 C 32.66,126.96 23.71,96.25 27.51,47.7 C 37.82,42.58 47.18,39.19 55.61,37.01 L 55.92,36.92 L 57.98,44.39 L 57.11,44.71 C 48.91,47.08 43.61,49.08 35.11,53.26 C 30.98,88.16 38.81,119.98 58.93,145.18 C 70.18,159.81 84.17,170.27 99.49,177.62 C 114.82,169.87 127.63,159.17 138.81,145.09 C 157.28,121.81 167.83,92.08 164.76,53.36 C 157.43,49.27 150.72,47.08 140.78,44.81 L 140.35,44.67 L 143.88,37.01 C 153.21,39.47 163.41,43.48 172.78,47.89 L 173.59,47.8 Z" fill="url(#paint1_linear_132_1721)" stroke="url(#paint2_linear_132_1721)" stroke-width="1.2" stroke-miterlimit="10"/>
<path d="M 109.69,14.49 C 102.71,21.99 99.61,31.26 98.69,43.95 C 94.93,33.44 96.73,21.2 103.34,11.69 C 104.61,9.77 107.89,12.23 109.69,14.49 Z" fill="url(#paint3_linear_132_1721)" stroke="url(#paint4_linear_132_1721)" stroke-width="1.2" stroke-miterlimit="10"/>
<path d="M 138.49,28.79 C 121.11,28.79 106.23,30.21 102.71,49.91 L 127.81,37.11 L 110.54,52.68 C 127.19,55.3 137.83,41.91 138.49,28.79 Z" fill="url(#paint5_linear_132_1721)" stroke="url(#paint6_linear_132_1721)" stroke-width="1.2" stroke-miterlimit="10"/>
<path d="M 60.84,28.93 C 76.02,28.93 91.92,30.21 95.91,49.91 L 72.47,37.11 L 87.28,52.68 C 72.86,55.3 61.34,43.62 60.84,28.93 Z" fill="url(#paint7_linear_132_1721)" stroke="url(#paint8_linear_132_1721)" stroke-width="1.2" stroke-miterlimit="10"/>
<path d="M 116.98,59.95 C 126.92,55.98 137.72,58.88 138.96,70.87 C 139.11,72.42 138.72,74.15 138.22,75.61 L 130.72,69.82 L 120.78,77.61 C 122.17,71.76 121.11,66.02 116.98,59.95 Z" fill="url(#paint9_linear_132_1721)" stroke="url(#paint10_linear_132_1721)" stroke-width="1.2" stroke-miterlimit="10"/>
<path d="M 82.03,60.32 C 73.6,55.93 63.95,60.14 61.34,69.01 C 59.23,76.46 63.22,83.26 69.46,86.71 C 72.71,81.97 76.38,78.05 79.82,75.78 C 78.83,71.05 79.63,65.71 82.03,60.32 Z" fill="url(#paint11_linear_132_1721)" stroke="url(#paint12_linear_132_1721)" stroke-width="1.2" stroke-miterlimit="10"/>
<path d="M 115.38,72.92 C 116.91,63.22 109.41,55.44 99.32,55.58 C 89.71,55.72 83.37,63.96 84.89,72.92 C 94.42,68.81 104.79,68.63 115.38,72.92 Z" fill="url(#paint13_linear_132_1721)" stroke="url(#paint14_linear_132_1721)" stroke-width="1.2" stroke-miterlimit="10"/>
<path d="M 142.62,81.44 C 150.08,85.16 151.76,94.12 148.62,101.11 C 145.94,107.18 139.81,108.91 136.01,108.63 C 136.47,102.88 135.11,97.18 133.17,92.12 L 142.62,81.44 Z" fill="url(#paint15_linear_132_1721)" stroke="url(#paint16_linear_132_1721)" stroke-width="1.2" stroke-miterlimit="10"/>
<path d="M 144.98,112.7 C 148.47,121.81 139.92,133.61 128.09,131.6 C 132.47,126.64 134.72,122.09 135.64,114.85 C 138.92,114.71 141.94,113.89 144.98,112.7 Z" fill="url(#paint17_linear_132_1721)" stroke="url(#paint18_linear_132_1721)" stroke-width="1.2" stroke-miterlimit="10"/>
<path d="M 131.66,137.72 C 129.72,146.83 120.19,152.22 112.81,149.09 C 109.41,147.67 107.23,145.31 106.03,143.53 C 113.42,142.34 119.21,139.77 123.45,136.5 C 125.93,138.05 128.92,138.37 131.66,137.72 Z" fill="url(#paint19_linear_132_1721)" stroke="url(#paint20_linear_132_1721)" stroke-width="1.2" stroke-miterlimit="10"/>
<path d="M 110.83,154.48 C 106.11,162.41 92.92,161.41 88.58,154.11 C 94.74,152.65 97.31,148.63 99.61,144.13 C 101.72,144.13 104.09,152.65 110.83,154.48 Z" fill="url(#paint21_linear_132_1721)" stroke="url(#paint22_linear_132_1721)" stroke-width="1.2" stroke-miterlimit="10"/>
<path d="M 69.07,137.72 C 76.13,138.42 77.93,136.22 78.32,136.5 C 83.11,139.91 87.97,142.06 93.31,143.02 C 88.96,150.99 73.64,152.04 69.07,137.72 Z" fill="url(#paint23_linear_132_1721)" stroke="url(#paint24_linear_132_1721)" stroke-width="1.2" stroke-miterlimit="10"/>
<path d="M 54.72,112.38 C 57.45,113.93 60.41,114.62 63.91,114.76 C 65.22,121.14 68.13,127.05 72.24,131.46 C 61.23,134.73 51.68,124.94 54.72,112.38 Z" fill="url(#paint25_linear_132_1721)" stroke="url(#paint26_linear_132_1721)" stroke-width="1.2" stroke-miterlimit="10"/>
<path d="M 55.92,82.71 C 57.22,86.02 59.82,88.74 65.53,91.11 C 62.8,97.02 62.04,102.88 62.72,108.4 C 51.72,107.08 47.14,94.77 52.18,86.16 C 53.24,84.52 54.51,83.21 55.92,82.71 Z" fill="url(#paint27_linear_132_1721)" stroke="url(#paint28_linear_132_1721)" stroke-width="1.2" stroke-miterlimit="10"/>
<path d="M 130.76,74.47 L 98.42,107.22 L 88.28,97.52 L 82.3,103.91 L 98.92,123.98 L 136.59,79.72 L 130.76,74.47 Z" fill="url(#paint29_linear_132_1721)" stroke="url(#paint30_linear_132_1721)" stroke-width="1.2" stroke-miterlimit="10"/>
<path d="M 129.99,96.11 L 124.92,102.23 C 127.91,115.62 117.12,132.32 99.28,132.32 C 85.39,132.32 74.96,120.53 74.96,107.13 C 74.96,93.43 86.08,81.12 99.61,81.12 C 104.79,81.12 108.78,82.8 112.77,85.12 L 117.01,80.38 C 111.91,76.93 106.19,75.1 99.61,75.1 C 82.99,75.1 68.38,89.78 68.38,107.04 C 68.38,123.98 82.26,138.66 98.88,138.33 C 118.82,137.91 134.06,121.72 131.62,101.53 C 131.39,99.61 130.81,97.61 129.99,96.11 Z" fill="url(#paint31_linear_132_1721)" stroke="url(#paint32_linear_132_1721)" stroke-width="1.2" stroke-miterlimit="10"/>
<path opacity="0.6" d="M 97.73,58.88 C 92.42,59.41 89.11,64.32 89.38,67.09 C 89.57,68.92 91.73,67.51 92.23,65.91 C 93.22,63.18 95.91,61.72 98.54,60.81 C 99.95,60.27 99.41,58.72 97.73,58.88 Z" fill="#FEFFFE"/>
<path opacity="0.6" d="M 72.24,62.68 C 66.93,63.96 64.34,68.63 64.53,71.4 C 64.68,73.23 66.32,72.79 66.93,70.82 C 68.01,67.65 69.62,66.73 72.51,65.5 C 74.49,64.63 74.41,62.22 72.24,62.68 Z" fill="#FEFFFE"/>
<path opacity="0.6" d="M 55.73,86.58 C 53.71,88.89 52.38,92.12 53.12,94.12 C 53.71,95.72 54.89,94.08 55.5,92.03 C 56.19,89.66 57.68,88.43 57.68,87.7 C 57.72,86.71 56.82,85.39 55.73,86.58 Z" fill="#FEFFFE"/>
<path opacity="0.2" d="M 145.67,88.41 C 148.07,95.72 144.61,103.64 136.01,104.69 L 136.63,107.01 C 145.48,106.14 149.09,96.11 146.96,90.05 C 146.57,88.78 145.32,87.56 145.67,88.41 Z" fill="#FEFFFE"/>
<path opacity="0.2" d="M 143.12,114.03 C 144.57,122.41 137.11,129.01 129.04,128.83 L 128.42,130.38 C 138.07,131.6 145.82,122.91 145.01,114.71 C 144.82,113.12 142.92,112.93 143.12,114.03 Z" fill="#FEFFFE"/>
<path opacity="0.2" d="M 128.61,138.64 C 125.81,146.09 115.71,149.09 108.73,144.81 L 107.31,145.41 C 114.69,151.47 126.92,147.11 129.84,139.1 C 130.42,137.32 129.11,137.18 128.61,138.64 Z" fill="#FEFFFE"/>
<path opacity="0.2" d="M 108.42,155.2 C 102.71,160.08 94.03,157.62 91.07,154.62 L 89.51,155.2 C 94.18,160.95 104.64,160.22 109.38,155.77 C 110.43,154.62 109.72,154.07 108.42,155.2 Z" fill="#FEFFFE"/>
<path opacity="0.2" d="M 88.96,145.72 C 82.03,148.95 74.72,145.54 71.77,138.83 L 70.21,138.69 C 72.71,147.61 82.91,150.61 89.96,146.51 C 91.41,145.63 90.76,144.9 88.96,145.72 Z" fill="#FEFFFE"/>
<defs>
<linearGradient id="paint0_linear_132_1721" x1="99.5" y1="6" x2="99.5" y2="194.426" gradientUnits="userSpaceOnUse">
<stop stop-color="#B1163E"/>
<stop offset="1" stop-color="#53052E"/>
</linearGradient>
<linearGradient id="paint1_linear_132_1721" x1="99.7688" y1="36.627" x2="99.7688" y2="186.569" gradientUnits="userSpaceOnUse">
<stop stop-color="#FEE992"/>
<stop offset="0.286458" stop-color="#F8D57B"/>
<stop offset="0.708333" stop-color="#D7A655"/>
<stop offset="1" stop-color="#B97629"/>
</linearGradient>
<linearGradient id="paint2_linear_132_1721" x1="99.7688" y1="36.627" x2="99.7688" y2="186.569" gradientUnits="userSpaceOnUse">
<stop stop-color="#FEFFFE"/>
<stop offset="1" stop-color="#FEFFFE" stop-opacity="0.25"/>
</linearGradient>
<linearGradient id="paint3_linear_132_1721" x1="102.934" y1="10.8281" x2="102.934" y2="43.9463" gradientUnits="userSpaceOnUse">
<stop stop-color="#FEE992"/>
<stop offset="0.286458" stop-color="#F8D57B"/>
<stop offset="0.708333" stop-color="#D7A655"/>
<stop offset="1" stop-color="#B97629"/>
</linearGradient>
<linearGradient id="paint4_linear_132_1721" x1="102.934" y1="10.8281" x2="102.934" y2="43.9463" gradientUnits="userSpaceOnUse">
<stop stop-color="#FEFFFE"/>
<stop offset="1" stop-color="#FEFFFE" stop-opacity="0.25"/>
</linearGradient>
<linearGradient id="paint5_linear_132_1721" x1="120.6" y1="28.6484" x2="120.6" y2="53.2617" gradientUnits="userSpaceOnUse">
<stop stop-color="#FEE992"/>
<stop offset="0.286458" stop-color="#F8D57B"/>
<stop offset="0.708333" stop-color="#D7A655"/>
<stop offset="1" stop-color="#B97629"/>
</linearGradient>
<linearGradient id="paint6_linear_132_1721" x1="120.6" y1="28.6484" x2="120.6" y2="53.2617" gradientUnits="userSpaceOnUse">
<stop stop-color="#FEFFFE"/>
<stop offset="1" stop-color="#FEFFFE" stop-opacity="0.25"/>
</linearGradient>
<linearGradient id="paint7_linear_132_1721" x1="78.3741" y1="28.6484" x2="78.3741" y2="53.8053" gradientUnits="userSpaceOnUse">
<stop stop-color="#FEE992"/>
<stop offset="0.286458" stop-color="#F8D57B"/>
<stop offset="0.708333" stop-color="#D7A655"/>
<stop offset="1" stop-color="#B97629"/>
</linearGradient>
<linearGradient id="paint8_linear_132_1721" x1="78.3741" y1="28.6484" x2="78.3741" y2="53.8053" gradientUnits="userSpaceOnUse">
<stop stop-color="#FEFFFE"/>
<stop offset="1" stop-color="#FEFFFE" stop-opacity="0.25"/>
</linearGradient>
<linearGradient id="paint9_linear_132_1721" x1="127.94" y1="57.9219" x2="127.94" y2="77.6094" gradientUnits="userSpaceOnUse">
<stop stop-color="#D32852"/>
<stop offset="1" stop-color="#96143C"/>
</linearGradient>
<linearGradient id="paint10_linear_132_1721" x1="127.94" y1="57.9219" x2="127.94" y2="77.6094" gradientUnits="userSpaceOnUse">
<stop stop-color="#FEFFFE"/>
<stop offset="1" stop-color="#FEFFFE" stop-opacity="0.25"/>
</linearGradient>
<linearGradient id="paint11_linear_132_1721" x1="71.8027" y1="58.7656" x2="71.8027" y2="86.707" gradientUnits="userSpaceOnUse">
<stop stop-color="#D32852"/>
<stop offset="1" stop-color="#96143C"/>
</linearGradient>
<linearGradient id="paint12_linear_132_1721" x1="71.8027" y1="58.7656" x2="71.8027" y2="86.707" gradientUnits="userSpaceOnUse">
<stop stop-color="#FEFFFE"/>
<stop offset="1" stop-color="#FEFFFE" stop-opacity="0.25"/>
</linearGradient>
<linearGradient id="paint13_linear_132_1721" x1="99.8047" y1="55.5742" x2="99.8047" y2="72.9219" gradientUnits="userSpaceOnUse">
<stop stop-color="#D32852"/>
<stop offset="1" stop-color="#96143C"/>
</linearGradient>
<linearGradient id="paint14_linear_132_1721" x1="99.8047" y1="55.5742" x2="99.8047" y2="72.9219" gradientUnits="userSpaceOnUse">
<stop stop-color="#FEFFFE"/>
<stop offset="1" stop-color="#FEFFFE" stop-opacity="0.25"/>
</linearGradient>
<linearGradient id="paint15_linear_132_1721" x1="140.82" y1="81.1172" x2="140.82" y2="108.672" gradientUnits="userSpaceOnUse">
<stop stop-color="#D32852"/>
<stop offset="1" stop-color="#96143C"/>
</linearGradient>
<linearGradient id="paint16_linear_132_1721" x1="140.82" y1="81.1172" x2="140.82" y2="108.672" gradientUnits="userSpaceOnUse">
<stop stop-color="#FEFFFE"/>
<stop offset="1" stop-color="#FEFFFE" stop-opacity="0.25"/>
</linearGradient>
<linearGradient id="paint17_linear_132_1721" x1="135.535" y1="112.285" x2="135.535" y2="132.016" gradientUnits="userSpaceOnUse">
<stop stop-color="#D32852"/>
<stop offset="1" stop-color="#96143C"/>
</linearGradient>
<linearGradient id="paint18_linear_132_1721" x1="135.535" y1="112.285" x2="135.535" y2="132.016" gradientUnits="userSpaceOnUse">
<stop stop-color="#FEFFFE"/>
<stop offset="1" stop-color="#FEFFFE" stop-opacity="0.25"/>
</linearGradient>
<linearGradient id="paint19_linear_132_1721" x1="118.844" y1="136.086" x2="118.844" y2="149.961" gradientUnits="userSpaceOnUse">
<stop stop-color="#D32852"/>
<stop offset="1" stop-color="#96143C"/>
</linearGradient>
<linearGradient id="paint20_linear_132_1721" x1="118.844" y1="136.086" x2="118.844" y2="149.961" gradientUnits="userSpaceOnUse">
<stop stop-color="#FEFFFE"/>
<stop offset="1" stop-color="#FEFFFE" stop-opacity="0.25"/>
</linearGradient>
<linearGradient id="paint21_linear_132_1721" x1="100.01" y1="143.629" x2="100.01" y2="160.121" gradientUnits="userSpaceOnUse">
<stop stop-color="#D32852"/>
<stop offset="1" stop-color="#96143C"/>
</linearGradient>
<linearGradient id="paint22_linear_132_1721" x1="100.01" y1="143.629" x2="100.01" y2="160.121" gradientUnits="userSpaceOnUse">
<stop stop-color="#FEFFFE"/>
<stop offset="1" stop-color="#FEFFFE" stop-opacity="0.25"/>
</linearGradient>
<linearGradient id="paint23_linear_132_1721" x1="81.1914" y1="136.086" x2="81.1914" y2="149.316" gradientUnits="userSpaceOnUse">
<stop stop-color="#D32852"/>
<stop offset="1" stop-color="#96143C"/>
</linearGradient>
<linearGradient id="paint24_linear_132_1721" x1="81.1914" y1="136.086" x2="81.1914" y2="149.316" gradientUnits="userSpaceOnUse">
<stop stop-color="#FEFFFE"/>
<stop offset="1" stop-color="#FEFFFE" stop-opacity="0.25"/>
</linearGradient>
<linearGradient id="paint25_linear_132_1721" x1="63.1523" y1="111.863" x2="63.1523" y2="132.602" gradientUnits="userSpaceOnUse">
<stop stop-color="#D32852"/>
<stop offset="1" stop-color="#96143C"/>
</linearGradient>
<linearGradient id="paint26_linear_132_1721" x1="63.1523" y1="111.863" x2="63.1523" y2="132.602" gradientUnits="userSpaceOnUse">
<stop stop-color="#FEFFFE"/>
<stop offset="1" stop-color="#FEFFFE" stop-opacity="0.25"/>
</linearGradient>
<linearGradient id="paint27_linear_132_1721" x1="57.2617" y1="82.4219" x2="57.2617" y2="108.402" gradientUnits="userSpaceOnUse">
<stop stop-color="#D32852"/>
<stop offset="1" stop-color="#96143C"/>
</linearGradient>
<linearGradient id="paint28_linear_132_1721" x1="57.2617" y1="82.4219" x2="57.2617" y2="108.402" gradientUnits="userSpaceOnUse">
<stop stop-color="#FEFFFE"/>
<stop offset="1" stop-color="#FEFFFE" stop-opacity="0.25"/>
</linearGradient>
<linearGradient id="paint29_linear_132_1721" x1="109.445" y1="74.4727" x2="109.445" y2="123.977" gradientUnits="userSpaceOnUse">
<stop stop-color="#FEE992"/>
<stop offset="0.286458" stop-color="#F8D57B"/>
<stop offset="0.708333" stop-color="#D7A655"/>
<stop offset="1" stop-color="#B97629"/>
</linearGradient>
<linearGradient id="paint30_linear_132_1721" x1="109.445" y1="74.4727" x2="109.445" y2="123.977" gradientUnits="userSpaceOnUse">
<stop stop-color="#FEFFFE"/>
<stop offset="1" stop-color="#FEFFFE" stop-opacity="0.25"/>
</linearGradient>
<linearGradient id="paint31_linear_132_1721" x1="99.9999" y1="74.5625" x2="99.9999" y2="138.344" gradientUnits="userSpaceOnUse">
<stop stop-color="#FEE992"/>
<stop offset="0.286458" stop-color="#F8D57B"/>
<stop offset="0.708333" stop-color="#D7A655"/>
<stop offset="1" stop-color="#B97629"/>
</linearGradient>
<linearGradient id="paint32_linear_132_1721" x1="99.9999" y1="74.5625" x2="99.9999" y2="138.344" gradientUnits="userSpaceOnUse">
<stop stop-color="#FEFFFE"/>
<stop offset="1" stop-color="#FEFFFE" stop-opacity="0.25"/>
</linearGradient>
</defs>
</svg>
